<?xml version="1.0" encoding="UTF-8" standalone="no"?>
<svg
   xmlns:dc="http://purl.org/dc/elements/1.1/"
   xmlns:cc="http://creativecommons.org/ns#"
   xmlns:rdf="http://www.w3.org/1999/02/22-rdf-syntax-ns#"
   xmlns:svg="http://www.w3.org/2000/svg"
   xmlns="http://www.w3.org/2000/svg"
   xmlns:xlink="http://www.w3.org/1999/xlink"
   xmlns:sodipodi="http://sodipodi.sourceforge.net/DTD/sodipodi-0.dtd"
   xmlns:inkscape="http://www.inkscape.org/namespaces/inkscape"
   id="svg8"
   version="1.1"
   viewBox="0 0 12.848083 14.458544"
   height="54.646469"
   width="48.559685"
   sodipodi:docname="lvpsLogo.svg"
   inkscape:version="0.92.0 r15299">
  <sodipodi:namedview
     pagecolor="#ffffff"
     bordercolor="#666666"
     borderopacity="1"
     objecttolerance="10"
     gridtolerance="10"
     guidetolerance="10"
     inkscape:pageopacity="0"
     inkscape:pageshadow="2"
     inkscape:window-width="1920"
     inkscape:window-height="1137"
     id="namedview4772"
     showgrid="false"
     showguides="false"
     inkscape:zoom="4.84"
     inkscape:cx="-21.345344"
     inkscape:cy="47.326023"
     inkscape:window-x="-8"
     inkscape:window-y="-8"
     inkscape:window-maximized="1"
     inkscape:current-layer="g4578"
     fit-margin-top="0"
     fit-margin-left="0"
     fit-margin-right="0"
     fit-margin-bottom="0" />
  <defs
     id="defs2">
      @import url('https://fonts.googleapis.com/css?family=Merriweather');
    <linearGradient
   id="linearGradient4562">
  <stop
     id="stop4558"
     offset="0"
     style="stop-color:#ffffff;stop-opacity:1;" />
  <stop
     id="stop4560"
     offset="1"
     style="stop-color:#ffffff;stop-opacity:0;" />
</linearGradient>
<linearGradient
   id="linearGradient4530">
  <stop
     id="stop4526"
     offset="0"
     style="stop-color:#000000;stop-opacity:1;" />
  <stop
     id="stop4528"
     offset="1"
     style="stop-color:#000000;stop-opacity:0;" />
</linearGradient>
<linearGradient
   gradientUnits="userSpaceOnUse"
   y2="7.6303349"
   x2="85.352066"
   y1="7.6303349"
   x1="0.67181337"
   id="linearGradient4532"
   xlink:href="#linearGradient4530" />
<linearGradient
   gradientUnits="userSpaceOnUse"
   y2="13.748884"
   x2="25.337723"
   y1="13.748884"
   x1="0.64813936"
   id="linearGradient4568"
   xlink:href="#linearGradient4562" />
<linearGradient
   y2="13.748884"
   x2="25.337723"
   y1="13.748884"
   x1="0.64813936"
   gradientUnits="userSpaceOnUse"
   id="linearGradient4661"
   xlink:href="#linearGradient4562"
   gradientTransform="matrix(0.58435051,0,0,0.58435051,0.44788153,11.722503)" />
</defs>
  <metadata
     id="metadata5">
    <rdf:RDF>
      <cc:Work
         rdf:about="">
        <dc:format>image/svg+xml</dc:format>
        <dc:type
           rdf:resource="http://purl.org/dc/dcmitype/StillImage" />
        <dc:title></dc:title>
      </cc:Work>
    </rdf:RDF>
  </metadata>
  <g
     style="display:inline"
     id="layer3"
     transform="translate(-2.7464029,-10.824134)" />
  <g
     style="display:inline"
     id="layer5"
     transform="translate(-2.7464029,-10.824134)" />
  <g
     style="display:inline"
     transform="translate(-2.7464029,-281.36578)"
     id="layer1" />
  <flowRoot
     xml:space="preserve"
     id="flowRoot4546"
     style="font-style:normal;font-variant:normal;font-weight:normal;font-stretch:normal;font-size:4.23333311px;line-height:6.61458302px;font-family:'Libre Baskerville';-inkscape-font-specification:'Libre Baskerville';letter-spacing:0px;word-spacing:0px;fill:#649700;fill-opacity:1;stroke:none;stroke-width:0.26458332"
     transform="translate(-2.7464029,-10.824134)"><flowRegion
       id="flowRegion4548"
       style="fill:#649700;fill-opacity:1;stroke-width:0.26458332"><rect
         id="rect4550"
         width="15.213541"
         height="4.6302085"
         x="-6.614583"
         y="22.064362"
         style="fill:#649700;fill-opacity:1;stroke-width:0.07000434" /></flowRegion><flowPara
       id="flowPara4552"
       style="stroke-width:0.26458332">La Veta</flowPara></flowRoot>  <g
     id="g4659"
     transform="matrix(0.84568923,0,0,0.84568923,-0.56809055,-10.607468)">
    <g
       aria-label="LV"
       transform="matrix(0.93298674,0,0,1.0718266,10.63728,0.62572236)"
       style="font-style:normal;font-variant:normal;font-weight:normal;font-stretch:normal;font-size:10.45434475px;line-height:4.08457899px;font-family:'Libre Baskerville';-inkscape-font-specification:'Libre Baskerville';letter-spacing:0px;word-spacing:0px;display:inline;fill:#000000;fill-opacity:1;stroke:#5c0002;stroke-width:0.16338317;stroke-opacity:1"
       id="text4798" />
    <g
       id="g4578">
      <path
         inkscape:connector-curvature="0"
         id="path4539"
         d="m 14.611207,19.756671 a 6.5709,6.5709 0 0 1 -6.5708997,6.5709 6.5709,6.5709 0 0 1 -6.5708999,-6.5709 6.5709,6.5709 0 0 1 6.5708999,-6.5709 6.5709,6.5709 0 0 1 6.5708997,6.5709 z"
         style="display:inline;opacity:1;fill:url(#linearGradient4661);fill-opacity:1;stroke:#5c0000;stroke-width:1.2855711;stroke-linejoin:miter;stroke-miterlimit:4;stroke-dasharray:none;stroke-opacity:1;paint-order:stroke fill markers" />
      <g
         id="text4810"
         style="font-style:normal;font-variant:normal;font-weight:normal;font-stretch:normal;font-size:10.45434475px;line-height:4.08457899px;font-family:'Libre Baskerville';-inkscape-font-specification:'Libre Baskerville';letter-spacing:0px;word-spacing:0px;display:inline;fill:#000100;fill-opacity:1;stroke:none;stroke-width:0.16338317;stroke-opacity:1"
         transform="matrix(0.93298674,0,0,1.0718266,1.2514447,-0.62572236)"
         aria-label="LV">
        <path
           inkscape:connector-curvature="0"
           id="path4541"
           style="font-style:italic;font-variant:normal;font-weight:900;font-stretch:normal;font-size:10.30729389px;font-family:Merriweather;-inkscape-font-specification:'Merriweather Heavy Italic';fill:#1d1e1e;fill-opacity:1;stroke:none;stroke-width:0.16338317;stroke-opacity:1"
           d="M 1.8250038,22.131003 2.6554254,15.83993 1.9206281,15.709076 1.9860553,15.155461 h 3.4173108 l -0.060394,0.553615 -0.9159802,0.130854 -0.8354545,6.326303 1.8067961,-0.100657 1.0619331,-2.269819 0.9109474,0.115755 -0.5234173,2.90396 H 1.0700751 l 0.060394,-0.533483 z" />
        <path
           inkscape:connector-curvature="0"
           id="path4543"
           style="font-style:italic;font-variant:normal;font-weight:900;font-stretch:normal;font-size:10.30729389px;font-family:Merriweather;-inkscape-font-specification:'Merriweather Heavy Italic';fill:#1d1e1e;fill-opacity:1;stroke:none;stroke-width:0.16338317;stroke-opacity:1"
           d="m 7.3963779,15.704043 0.07046,-0.548582 h 3.3367851 l -0.0453,0.553615 -0.8153228,0.130854 0.5536148,4.408784 0.09562,1.046834 0.42276,-1.046834 2.023209,-4.408784 -0.890816,-0.130854 0.05033,-0.553615 h 2.707678 l -0.09059,0.553615 -0.770027,0.130854 -3.306588,7.02587 H 9.2233055 L 8.0959452,15.83993 Z" />
      </g>
      <g
         id="text4804"
         style="font-style:normal;font-variant:normal;font-weight:normal;font-stretch:normal;font-size:10.45434475px;line-height:4.08457899px;font-family:'Libre Baskerville';-inkscape-font-specification:'Libre Baskerville';letter-spacing:0px;word-spacing:0px;display:inline;fill:#fdffff;fill-opacity:1;stroke:none;stroke-width:0.16338317;stroke-opacity:1"
         transform="matrix(0.93298674,0,0,1.0718266,-12.514446,-0.62572236)"
         aria-label="LV">
        <path
           inkscape:connector-curvature="0"
           id="path4536"
           style="font-style:italic;font-variant:normal;font-weight:900;font-stretch:normal;font-size:10.30729389px;font-family:Merriweather;-inkscape-font-specification:'Merriweather Heavy Italic';fill:#fdffff;fill-opacity:1;stroke:none;stroke-width:0.16338317;stroke-opacity:1"
           d="m 16.378872,21.841588 0.830421,-6.291073 -0.734797,-0.130855 0.06543,-0.553614 h 3.417311 l -0.06039,0.553614 -0.91598,0.130855 -0.835455,6.326303 1.806796,-0.100658 1.061933,-2.269819 0.910948,0.115756 -0.523418,2.903959 H 15.62395 l 0.06039,-0.533483 z" />
        <path
           inkscape:connector-curvature="0"
           id="path4538"
           style="font-style:italic;font-variant:normal;font-weight:900;font-stretch:normal;font-size:10.30729389px;font-family:Merriweather;-inkscape-font-specification:'Merriweather Heavy Italic';fill:#fdffff;fill-opacity:1;stroke:none;stroke-width:0.16338317;stroke-opacity:1"
           d="m 21.950246,15.414627 0.07046,-0.548581 h 3.336785 l -0.0453,0.553614 -0.815323,0.130855 0.553615,4.408784 0.09562,1.046834 0.42276,-1.046834 2.023209,-4.408784 -0.890816,-0.130855 0.05033,-0.553614 h 2.707677 l -0.09059,0.553614 -0.770027,0.130855 -3.306588,7.02587 h -1.514891 l -1.12736,-7.02587 z" />
      </g>
      <path
         inkscape:connector-curvature="0"
         id="path4531"
         style="font-style:italic;font-variant:normal;font-weight:900;font-stretch:normal;font-size:10.30729389px;line-height:4.08457899px;font-family:Merriweather;-inkscape-font-specification:'Merriweather Heavy Italic';letter-spacing:0px;word-spacing:0px;display:inline;fill:#94090d;fill-opacity:1;stroke:none;stroke-width:0.16338317;stroke-opacity:1"
         d="m -8.8780662,20.527583 0.8304216,-6.291073 -0.7347973,-0.130855 0.065427,-0.553614 h 3.4173109 l -0.060394,0.553614 -0.9159803,0.130855 -0.8354545,6.326303 1.8067962,-0.100658 1.0619331,-2.269819 0.9109474,0.115756 -0.5234173,2.903959 H -9.632995 l 0.060394,-0.533483 z"
         transform="matrix(0.93298674,0,0,1.0718266,10.63728,0.62572244)" />
      <path
         inkscape:connector-curvature="0"
         id="path4533"
         style="font-style:italic;font-variant:normal;font-weight:900;font-stretch:normal;font-size:10.30729389px;line-height:4.08457899px;font-family:Merriweather;-inkscape-font-specification:'Merriweather Heavy Italic';letter-spacing:0px;word-spacing:0px;display:inline;fill:#94090d;fill-opacity:1;stroke:none;stroke-width:0.16338317;stroke-opacity:1"
         d="m -3.3066921,14.100623 0.07046,-0.548582 h 3.33678505 l -0.04529572,0.553614 -0.81532306,0.130855 0.55361442,4.408784 0.0956243,1.046834 0.4227601,-1.046834 2.02320911,-4.408784 -0.890816,-0.130855 0.050329,-0.553614 H 4.2023325 L 4.1117411,14.105655 3.3417137,14.23651 0.03512579,21.26238 H -1.4797646 l -1.1273602,-7.02587 z"
         transform="matrix(0.93298674,0,0,1.0718266,10.63728,0.62572244)" />
      <g
         id="text4556"
         style="font-style:normal;font-variant:normal;font-weight:normal;font-stretch:normal;font-size:2.38579345px;line-height:3.72780252px;font-family:'Libre Baskerville';-inkscape-font-specification:'Libre Baskerville';letter-spacing:0px;word-spacing:0px;fill:#5c0002;fill-opacity:1;stroke:#94090d;stroke-width:0.10167699;stroke-miterlimit:4;stroke-dasharray:none;stroke-opacity:1"
         transform="matrix(1.0624253,0,0,0.94124264,1.2514447,-0.62572236)"
         aria-label="LA VETA">
        <path
           inkscape:connector-curvature="0"
           id="path4546"
           style="font-style:italic;font-variant:normal;font-weight:bold;font-stretch:normal;font-size:3.18105841px;line-height:25.81660652px;font-family:Merriweather;-inkscape-font-specification:'Merriweather Bold Italic';letter-spacing:0.22263755px;fill:#5c0002;fill-opacity:1;stroke:#94090d;stroke-width:0.10167699;stroke-miterlimit:4;stroke-dasharray:none;stroke-opacity:1"
           d="m -0.25112318,31.882464 0.25317994,-1.963309 -0.21745516,-0.03883 0.0201923,-0.164645 h 0.94437672 l -0.018639,0.164645 -0.28735147,0.03883 -0.25317994,1.969522 0.63217323,-0.02485 0.27647876,-0.61664 0.2360942,0.03572 -0.1553251,0.796818 h -1.66819185 l 0.0170858,-0.152218 z" />
        <path
           inkscape:connector-curvature="0"
           id="path4548"
           style="font-style:italic;font-variant:normal;font-weight:bold;font-stretch:normal;font-size:3.18105841px;line-height:25.81660652px;font-family:Merriweather;-inkscape-font-specification:'Merriweather Bold Italic';letter-spacing:0.22263755px;fill:#5c0002;fill-opacity:1;stroke:#94090d;stroke-width:0.10167699;stroke-miterlimit:4;stroke-dasharray:none;stroke-opacity:1"
           d="m 3.1168482,29.715679 0.3883128,2.163679 0.2469669,0.0497 -0.010873,0.150665 H 2.7953252 l 0.00777,-0.150665 0.2423072,-0.04504 -0.068343,-0.464423 H 2.1647052 l -0.2065824,0.462869 0.2718189,0.0466 -0.010873,0.150665 H 1.4113784 l 0.012426,-0.150665 0.2019226,-0.04504 1.0531043,-2.168339 z M 2.9444373,31.205247 2.8061979,30.262423 2.7906654,30.015456 2.2594535,31.205247 Z" />
        <path
           inkscape:connector-curvature="0"
           id="path4550"
           style="font-style:italic;font-variant:normal;font-weight:bold;font-stretch:normal;font-size:3.18105841px;line-height:25.81660652px;font-family:Merriweather;-inkscape-font-specification:'Merriweather Bold Italic';letter-spacing:0.22263755px;fill:#5c0002;fill-opacity:1;stroke:#94090d;stroke-width:0.10167699;stroke-miterlimit:4;stroke-dasharray:none;stroke-opacity:1"
           d="m 4.9538361,29.87877 0.018639,-0.163091 h 0.9055454 l -0.015532,0.164645 -0.2438604,0.03883 0.1879433,1.410352 0.035725,0.371227 0.1366861,-0.371227 0.6321733,-1.410352 -0.2454137,-0.03883 0.015532,-0.164645 h 0.748667 l -0.023299,0.164645 -0.2034759,0.03728 -1.0096133,2.177658 -0.3789933,0.0078 -0.3572477,-2.183871 z" />
        <path
           inkscape:connector-curvature="0"
           id="path4552"
           style="font-style:italic;font-variant:normal;font-weight:bold;font-stretch:normal;font-size:3.18105841px;line-height:25.81660652px;font-family:Merriweather;-inkscape-font-specification:'Merriweather Bold Italic';letter-spacing:0.22263755px;fill:#5c0002;fill-opacity:1;stroke:#94090d;stroke-width:0.10167699;stroke-miterlimit:4;stroke-dasharray:none;stroke-opacity:1"
           d="m 7.3121941,31.882464 0.2516267,-1.963309 -0.2159019,-0.03883 0.017086,-0.164645 h 1.6060617 l -0.035725,0.534318 h -0.265606 l -0.06213,-0.324629 -0.5964485,-0.03106 -0.1133873,0.846522 0.705176,-0.04505 -0.040385,0.307544 -0.6896435,-0.03572 -0.1242601,0.914865 0.7797321,-0.0466 0.1832836,-0.400739 0.2562865,0.03417 -0.1227069,0.610428 H 7.0528012 l 0.018639,-0.150665 z" />
        <path
           inkscape:connector-curvature="0"
           id="path4554"
           style="font-style:italic;font-variant:normal;font-weight:bold;font-stretch:normal;font-size:3.18105841px;line-height:25.81660652px;font-family:Merriweather;-inkscape-font-specification:'Merriweather Bold Italic';letter-spacing:0.22263755px;fill:#5c0002;fill-opacity:1;stroke:#94090d;stroke-width:0.10167699;stroke-miterlimit:4;stroke-dasharray:none;stroke-opacity:1"
           d="m 9.9982878,31.882464 0.2578402,-1.989714 -0.4255913,0.03728 -0.2065824,0.611981 -0.2423072,0.0016 0.1397926,-0.827883 h 1.9695223 l -0.1196,0.82633 -0.231435,0.0016 -0.01087,-0.613534 -0.430251,-0.03728 -0.259393,1.989714 0.416271,0.04194 -0.01398,0.155325 H 9.5959958 l 0.017086,-0.155325 z" />
        <path
           inkscape:connector-curvature="0"
           id="path4556"
           style="font-style:italic;font-variant:normal;font-weight:bold;font-stretch:normal;font-size:3.18105841px;line-height:25.81660652px;font-family:Merriweather;-inkscape-font-specification:'Merriweather Bold Italic';letter-spacing:0.22263755px;fill:#5c0002;fill-opacity:1;stroke:#94090d;stroke-width:0.10167699;stroke-miterlimit:4;stroke-dasharray:none;stroke-opacity:1"
           d="m 13.064929,29.715679 0.388312,2.163679 0.246967,0.0497 -0.01087,0.150665 h -0.94593 l 0.0078,-0.150665 0.242307,-0.04504 -0.06834,-0.464423 h -0.81235 l -0.206583,0.462869 0.271819,0.0466 -0.01087,0.150665 H 11.3595 l 0.01243,-0.150665 0.201923,-0.04504 1.053104,-2.168339 z m -0.172411,1.489568 -0.13824,-0.942824 -0.01553,-0.246967 -0.531212,1.189791 z" />
      </g>
    </g>
  </g>
</svg>
